<?xml version="1.0" encoding="UTF-8"?>
<svg id="Capa_1" data-name="Capa 1" xmlns="http://www.w3.org/2000/svg" viewBox="0 0 709.3 194.47">
  <defs>
    <style>
      .cls-1 {
        fill: #ff0;
      }
    </style>
  </defs>
  <g>
    <path class="cls-1" d="m337.91,33.77c-.71,8.8-1.6,17.42-1.58,26.12.02,6.74-.08,6.75-6.76,7.3-1.66.14-3.32.15-4.98.29-2.72.22-4.15-.86-3.84-3.7,2-18.28,1.56-36.69,2.94-55.01.2-2.7,1.21-4.45,4.26-4.25.17.01.34.01.5-.02,7.62-1.58,13.2-.14,16.31,8.19,2.94,7.86,8.31,14.53,13.3,21.19,1.95-.76,1.4-2.1,1.42-3.13.12-5.63.22-11.26.19-16.88-.04-9.53,3.36-11.99,12.65-9.14,2.39.73,2.92,2.52,2.98,4.59.5,16.7,1.96,33.38.39,50.11-.41,4.42-2.26,6.35-6.48,7.19-8.47,1.68-11.25.77-15.09-6.69-3.94-7.65-7.57-15.46-12.65-22.47-.91-1.26-1.24-3.08-3.56-3.69Z"/>
    <path class="cls-1" d="m489.41,36.43c0-8.93.08-17.87-.04-26.8-.04-3.18,1.62-4.51,4.41-4.9,10.45-1.48,20.92-1.65,31.26.67,7.37,1.65,12.56,11.04,11.19,20.36-1.05,7.11-3.94,13.4-10.71,16.98-2.55,1.35-2.06,2.47-.45,4.03,5.01,4.84,9.95,9.75,15.02,14.52,3.28,3.09,1.58,4.24-1.71,4.94-.65.14-1.36.07-1.96.31-8.48,3.28-14.26.24-18.94-7.13-2.25-3.55-5.88-6.25-8.94-9.29-.66-.66-1.36-1.69-2.49-1.23-1.2.49-.69,1.72-.7,2.61-.05,3.81.47,7.68-.07,11.41-1.12,7.79-7.65,3-11.55,4.36-3.03,1.06-4.5-.82-4.45-4.03.07-4.46-.15-8.93-.18-13.4-.04-4.46,0-8.93,0-13.39.1,0,.2,0,.3,0Zm16.13-7.91c0,1.97.01,3.95,0,5.92-.01,1.75.08,3.67,2.55,3.04,4.22-1.06,8.29-2.71,10.45-6.8,1.82-3.45,1.74-7.15-1.01-10.13-2.66-2.89-6.38-2.74-9.74-1.74-3.87,1.15-1.73,4.73-2.23,7.23-.16.79-.02,1.64-.02,2.46Z"/>
    <path class="cls-1" d="m571.95,3.55c5.41.62,11.35,1.39,17.31,1.95,2.39.23,3.7,1.23,3.87,3.62,1.22,17.35,5.02,34.38,6.24,51.74.27,3.83-1.03,4.8-4.49,5.17-9.88,1.06-10.19.95-11.99-8.59-.06-.33-.16-.64-.22-.97-1.31-7.65-4.83-10.09-12.72-9.11-1.91.24-2.53,1.03-2.71,2.77-.44,4.11-1,8.21-1.54,12.3-.2,1.49-.4,3.28-2.2,3.51-4.77.6-9.57,1.13-14.37,1.31-2.13.08-1.96-1.93-1.65-3.39,3.98-18.6,6.79-37.44,11.5-55.9.7-2.73,2.29-3.83,4.94-3.94,2.49-.11,4.98-.29,8.04-.47Zm3.53,30.76c1.06-.49,4.84,1.84,4.59-2.55-.19-3.26-1.03-6.49-1.61-9.72-.33-1.84-1.72-2.26-3.31-2.3-1.67-.04-2.32,1.14-2.61,2.48-.6,2.73-.9,5.54-1.68,8.22-1.05,3.63-.03,5.04,4.63,3.88Z"/>
    <path class="cls-1" d="m80.08,66.28c-5.34,1.26-6.85-1.7-7.21-6.22-.2-2.47-.82-4.9-1.06-7.36-.26-2.66-1.41-3.92-4.22-4.55-9.74-2.17-10.76-1.58-11.61,8.21-.11,1.32-.3,2.64-.33,3.96-.09,4.55-2.33,6.56-6.92,6.24-1.8-.13-3.65.16-5.46.38-6.84.84-7.08.56-5.68-6.41,1.98-9.89,3.9-19.8,5.92-29.68,1.45-7.13,3.13-14.21,4.49-21.35.69-3.63,2.42-5.33,6.28-5.62,8.56-.65,16.92.86,25.34,1.75,2.16.23,2.77,1.67,2.91,3.4,1.42,17.65,5.4,35,6.39,52.71.15,2.69-.54,4.05-3.4,4.08-1.82.02-3.63.3-5.45.46Zm-15.09-31.99c1-.47,4.77,1.88,4.53-2.52-.18-3.26-.94-6.5-1.54-9.73-.33-1.78-1.75-2.27-3.35-2.3-1.64-.03-2.31,1.04-2.6,2.45-.55,2.74-.92,5.53-1.67,8.21-.99,3.51-.2,5.13,4.63,3.88Z"/>
    <path class="cls-1" d="m430.93,25.32c0-4.96.11-9.92-.04-14.88-.13-4.16,1.91-5.2,5.63-4.52,1.79.33,3.63.54,5.45.53,6.73-.06,6.82-.1,6.55,6.43-.31,7.6-.72,15.2-1.23,22.79-.22,3.24.27,6.25,1.8,9.11,2.48,4.65,6.64,4.87,9.66.48,2.06-2.99,2.09-6.55,2.71-9.95,1.65-9.03.9-18.15,1.11-27.23.08-3.2,1-4.47,4.27-4.3,4.47.24,8.97.22,13.45.2,1.79,0,2.46.9,2.3,2.43-1.69,16-.76,32.4-8.74,47.36-5.2,9.76-13.35,12.98-23.55,12.08-9.42-.83-14.5-7.17-17.57-15.48-3.01-8.14-2.19-16.64-1.8-25.05Z"/>
    <path class="cls-1" d="m241.6,43.56c3.07-11.99,6.36-23.57,8.86-35.33.92-4.33,2.9-5.81,6.84-6.2,11.95-1.19,11.95-1.13,9.75,10.35-3.03,15.79-7.42,31.2-12.15,46.55-1.19,3.87-3.33,5.45-7.09,5.49-2.98.03-5.9.61-8.94.39-8.06-.6-8.13-.45-10.31-8.04-4.21-14.65-11.56-28.17-15.38-42.97-2.02-7.81-2.2-7.78,5.9-8.48,1.81-.16,3.64-.16,5.46-.2,3.49-.07,5.2,1.65,6.25,5.02,2.77,8.84,5.74,17.62,7.9,26.65.52,2.2.76,4.6,2.91,6.77Z"/>
    <path class="cls-1" d="m124.28,14.68c-2.97.34-5.96.52-8.89,1.08-2.42.46-4.38,1.85-4.56,4.57-.17,2.53,1.64,3.8,3.69,4.77,3.49,1.65,7.3,2.2,11.01,3.09,9.45,2.28,14.26,8.44,14.23,18.25-.03,10.46-5.34,17.91-14.35,20.17-8.07,2.02-16.09,2.05-24.11-.32-3.18-.94-4.83-2.34-3.77-6.05.9-3.16.42-6.96,2.43-9.52,2.75-3.49,5.43,1.3,8.5,1.02,3.07-.28,6.24.69,9.38.88,2.43.15,4.98-.4,5.5-3.16.5-2.68-1.95-3.6-3.97-4.32-3.13-1.12-6.37-1.9-9.51-2.99-15.71-5.49-20.57-25.02-9.44-37.39C104.06.74,108.84.18,113.63.03c4.97-.16,9.95.42,14.94.58,3.37.11,4.9,1.62,4.35,5.02-.08.49-.05.99-.08,1.49q-.45,7.95-8.55,7.57Z"/>
    <path class="cls-1" d="m634.5,14.9c-2.61-.01-5.95.02-9.17.97-2.19.65-3.92,2.03-4.04,4.5-.11,2.26,1.4,3.54,3.3,4.51,3.61,1.83,7.59,2.37,11.45,3.31,9.12,2.22,13.76,7.88,14.15,17.3.41,9.89-4.23,17.98-12.44,20.57-8.74,2.76-17.64,2.84-26.5.05-2.9-.91-3.94-2.33-3.26-5.46.7-3.22.47-6.87,2.26-9.59,2.8-4.25,5.6,1.13,8.73.69,3.23-.46,6.49,1.25,9.88.91,2.28-.23,4.55-.76,5.02-3.23.47-2.43-1.71-3.43-3.58-4.1-3.28-1.18-6.68-2.03-9.97-3.18-15.72-5.51-20.57-25.03-9.4-37.42,3.61-4.01,8.42-4.53,13.22-4.7,4.8-.16,9.62.41,14.44.54,3.46.09,5.41,1.34,4.77,5.12-.11.65-.06,1.32-.1,1.98q-.5,7.46-8.77,7.23Z"/>
    <path class="cls-1" d="m294.73,2.55c2.16.13,4.32.26,6.47.39,8.48.51,8.24.52,8.69,8.69.23,4.12-1.04,5.78-5.15,5.58-2.32-.11-4.65.16-6.98.31-5.82.36-6.44,1.22-5.93,7.06.22,2.46,1.18,3.5,3.7,3.54,4.49.06,8.97.43,13.46.54,2.9.07,4.25,1.4,4.29,4.25.02,1.49.03,3.01.32,4.45.77,3.78-1.15,5.11-4.53,5.3-4.31.25-8.62.64-12.94.74-3.7.08-4.74,1.85-4.66,5.33.1,4.08,2.93,2.77,4.95,2.82,4.82.12,9.65.09,14.48-.04,2.54-.07,3.41.92,3.66,3.43,1.04,10.6.69,11.25-10.11,11.45-8.65.16-17.26.58-25.85,1.55-3.49.39-4.27-.76-4.21-4.44.26-18.4,2.27-36.68,3.28-55.02.21-3.87,1.41-5.83,5.6-5.58,3.8.23,7.63.05,11.45.05,0-.13,0-.26,0-.39Z"/>
    <path class="cls-1" d="m206.52,51c0,1.98.17,3.99-.04,5.95-.27,2.5,1.15,6.16-1.58,7.18-3.32,1.25-7.23.64-10.7-.85-1.54-.66-1.37-2.11-1.46-3.41-.19-2.64-.16-5.32-.61-7.91-.42-2.4,1.12-6.06-3.69-6.08-6.6-.03-7.68.61-8.49,6.07-.59,3.93-1.23,7.84-1.74,11.78-.27,2.14-1.41,3.35-3.47,3.58-3.27.37-6.64,1.36-9.78-.16-1.11-.54-.44-2.14-.26-3.25,2.84-18.3,6.19-36.52,10.1-54.63.49-2.27,1.81-3.02,3.78-3.17,5.63-.46,11.24-.95,16.93-.32,4.02.45,5.65,2.46,6.22,6.29,1.93,12.93,4.07,25.83,4.82,38.93Zm-15.48-23.61c-.26-2.54-.44-4.83-.74-7.11-.23-1.72,0-3.94-2.56-4.08-2.59-.14-2.57,2.02-2.89,3.77-.57,3.06-1.16,6.12-1.71,9.19-.97,5.41,0,6.1,5.31,4.78,4.54-1.13,2-4.43,2.59-6.54Z"/>
    <path class="cls-1" d="m396.78,43.26c0-6.45-.05-12.89.02-19.34.03-3.08-1.51-3.7-4.13-3-.32.09-.63.21-.96.28-8.34,1.57-8.97,1.08-9.12-7.16,0-.5,0-.99-.02-1.49-.24-8.08-.24-7.98,8.27-8.11,9.47-.14,18.95-.39,28.41-.82,3.96-.18,6.07.94,5.44,5.23-.09.65,0,1.32,0,1.98.07,8.33.07,8.5-8.18,8.64-3.41.06-4.41,1.31-4,4.44,1.55,11.85.47,23.81,1.33,35.69.34,4.71-.68,7.84-6.31,7.24-.64-.07-1.31.22-1.97.26-8.3.46-9.08-.32-8.96-8.47.07-5.13.01-10.25.01-15.38h.17Z"/>
    <path class="cls-1" d="m14.82,28.81c0,6.12.01,12.24,0,18.36,0,2.4.45,3.97,3.44,2.7,1.02-.43,2.28-.35,3.44-.38,12.15-.37,12.29-.16,11.42,11.98-.18,2.55-.89,4.04-3.72,4.12-8.62.23-17.24.56-25.86.85-2.57.09-3.5-1.23-3.52-3.67C-.13,45.35,1.31,28.06,3.44,10.81c.71-5.77,5.09-3.77,8.49-3.79,3.84-.02,4.55,1.94,4.15,5.44-.62,5.41-.66,10.89-.95,16.34-.1,0-.21,0-.31,0Z"/>
  </g>
  <g id="_0ZihsN.tif" data-name="0ZihsN.tif">
    <g>
      <path class="cls-1" d="m169.81,133.79c0-13.11-.06-26.23.02-39.34.06-10.45.52-10.82,11.19-10.61,15.19.29,15.1.51,15.74,15.89,1.03,24.79,2.65,49.56.61,74.38-1.15,14.02-2.63,15.86-16.8,16.81-8.04.53-14.98-.15-19.07-9.74-6.06-14.21-13.21-28.08-22.46-40.66-1.61-2.19-2.27-5.21-6.47-6.84-.81,13.77-1.8,27.08-2.34,40.41-.7,17.15,3.39,15.76-16.43,17.19-10.28.74-10.46-.12-9.87-10.1,1.64-27.86,2.85-55.75,4.19-83.63.61-12.79.66-12.12,13.45-13.82,10.44-1.39,16.62,1.11,21.02,11.33,5.67,13.18,14.14,25.02,22.55,36.73.65.91,1.21,1.89,1.81,2.84.96-.28,1.91-.56,2.87-.84Z"/>
      <path class="cls-1" d="m533.96,140.15c-.28,25.27-17.75,47.52-39.42,52.98-29.13,7.34-50.86-17.03-54.25-37.24-2.61-15.55-1.37-30.89,3.42-45.89,7.66-23.95,22.41-32.51,50.61-26.96,26.6,5.23,39.99,25.87,39.64,57.12Zm-27.03-4.58c.13-5.43-.91-10.7-2.96-15.66-2.9-7.02-8.07-11.61-15.96-12.11-8.01-.51-14.5,2.59-18.54,9.62-3.25,5.65-5.61,11.71-6.24,18.27-1.64,17.16,12.33,30.96,27.12,26.85,9.31-2.58,16.53-14.35,16.58-26.98Z"/>
      <path class="cls-1" d="m694.32,189.43c-8.58,1.65-12.38-2-12.41-10.44,0-1.94-.81-3.86-1.11-5.81-2.04-13.33-8.73-17.97-22.21-15.99-3.55.52-3.97,2.52-4.29,5.08-.86,6.71-1.67,13.42-2.47,20.13-.3,2.56-.42,5.78-3.39,6.19-8.39,1.15-16.9,2.56-25.28,2.19-4.72-.21-2.45-5.57-1.92-8.45,2.6-14.13,5.77-28.16,8.41-42.28,3-16.06,6.06-32.1,9.94-47.99,1.44-5.91,4.34-8.4,10.4-8.9,14.61-1.21,28.87,1.42,43.25,2.93,4.11.43,5.11,3.32,5.35,6.49,2.24,29.81,8.76,59.12,10.67,88.97.29,4.57-.69,6.97-5.64,7.04-3.1.05-6.2.54-9.29.83Zm-25.42-54.6c1.36-.62,7.37,3.04,7.28-3.56-.08-5.81-1.61-11.61-2.67-17.38-.57-3.09-3.14-3.69-5.81-3.72-2.82-.03-3.82,1.92-4.32,4.3-.99,4.65-1.85,9.34-3.01,13.95-1.53,6.05.33,8.63,8.53,6.41Z"/>
      <path class="cls-1" d="m250.67,82.52c10.13,1.16,20.25,2.44,30.4,3.43,4.17.41,5.84,2.31,6.16,6.42,2.32,29.75,9.1,58.97,10.53,88.85.24,5.06-.67,7.51-5.93,7.45-.56,0-1.12.2-1.68.27-17,2.06-17.6,1.23-20.56-15.36-.93-5.23,1.97-12.78-7.37-14.9-16.7-3.79-18.15-3.15-20.21,13.25q-2.08,16.49-19.45,18.29c-14.47,1.5-14.54,1.49-11.78-12.11,5.47-27.02,10.86-54.07,16.62-81.03,2.95-13.83,3.27-13.78,17.29-14.22,1.98-.06,3.97,0,5.95,0,.01-.11.03-.22.04-.32Zm7.03,52.43c1.6-.69,7.55,2.89,7.18-4.05-.29-5.57-1.41-11.12-2.44-16.63-.53-2.85-2.78-4.06-5.64-4.13-3.36-.08-4.25,2.31-4.79,4.87-.93,4.39-1.27,8.96-2.67,13.19-2.36,7.11.48,8.62,8.35,6.74Z"/>
      <path class="cls-1" d="m343.72,134.19c1.32-15.94,1.3-29.75,1.17-43.58-.04-4.42-.62-10.54,4.39-11.73,6.72-1.6,14.14-1.37,20.77,1.61,2.06.93,1.83,3.94,2.03,6.18.82,9.28,1.69,18.57.61,27.86-.63,5.43,1.17,8.09,6.92,7.59,1.97-.17,3.97-.01,5.96.06q14.49.54,14.9-13.79c.16-5.92.43-11.86.14-17.76-.28-5.63,2.15-7.19,7.54-7.3,17.85-.36,18.89-.58,19.55,16.78,1.02,26.75.45,53.56.54,80.34,0,2.03-.12,4.41-2.49,4.8-6.94,1.15-13.93,2.16-20.94,2.77-4.5.39-4.6-3.61-4.88-6.51-.84-8.71-1.14-17.47.17-26.17,1.03-6.82-.24-11.25-8.62-9.48-.54.11-1.13.01-1.7.02q-19.47.08-19.8,19.86c0,.56-.02,1.13-.03,1.69-.22,25.96-.62,18.07-22.31,16.91-4.81-.26-4.62-4.02-4.75-7.49-.54-14.96.16-29.89.81-42.67Z"/>
      <path class="cls-1" d="m34.1,118.14c-.32,6.19-.69,12.38-.94,18.58-.51,12.59,4.06,22.04,10.68,22.24,6.94.21,11.22-7.26,13.26-20.01,2.56-15.99,1.62-32.05,1.98-48.07.15-6.54,2.44-8.34,8.5-7.94,7.06.46,14.16.5,21.24.4,2.79-.04,4.73.6,4.42,3.53-2.86,27.52-1.11,55.76-14.91,81.47-8.9,16.58-22.94,21.96-40.31,20.33-16.04-1.51-24.73-12.35-29.83-26.54-2.3-6.41-3.31-13.1-3.76-19.87-1.09-16.64.43-33.23,1.03-49.84.18-4.9,2.47-6.59,6.97-6.02,5.91.76,11.76,1.6,17.77.57,4.48-.77,5,2.35,4.97,5.83-.07,8.45-.02,16.9-.02,25.35-.35,0-.71,0-1.06,0Z"/>
      <path class="cls-1" d="m585.78,81.09c7.84-.03,15.49-.25,23.1.95,4.32.68,6.95,2.88,6.2,7.34-1.09,6.58,3.92,14.79-5.35,19.47-1.17.59-.61,4.73-.69,7.23-.52,15.75,2.49,31.42.28,47.25-2.32,16.64-12.74,29.72-25.63,30.69-20.54,1.55-35.82-8.8-40.14-27.16-.19-.82-.51-1.62-.67-2.44-4.18-20.88-.78-24.17,20.45-20.31,3.59.65,4.46,2.47,4.94,5.62.64,4.13,1.28,8.46,3.03,12.19,2.7,5.75,8.43,5.9,12.01.61,3.11-4.59,4.08-9.86,3.78-15.34-.62-11.25-1.47-22.49-1.89-33.75-.16-4.37-1.94-6.2-6.2-5.86-.28.02-.57,0-.85-.02-14.92-.98-19.98-8.1-16.54-22.87.92-3.94,3.75-3.78,6.54-3.62,5.95.36,11.88.94,17.64,0Z"/>
    </g>
  </g>
  <g>
    <path class="cls-1" d="m665.15,43.78c.22-3.02.46-6.03.64-9.05.07-1.19.52-1.9,1.76-2.26,2.34-.69,4.72-.92,7.12-.79,5.12.27,7.98,3.42,9.75,7.85,2.84,7.11-.96,17.11-7.82,20.53-2.79,1.39-5.86,1.5-8.89,1.67-1.21.07-1.22-1-1.37-1.79-.86-4.57-1.42-9.17-1.24-13.84.03-.77.08-1.54.12-2.32-.03,0-.06,0-.09,0Zm14.59,2.48c.04-3.78-2.8-6.98-6.37-7.15-1.03-.05-2.1-.02-2.04,1.44.14,3.8.3,7.6.48,11.39.04.74.27,1.35,1.28,1.3,3.53-.17,6.61-3.37,6.65-6.98Z"/>
    <path class="cls-1" d="m688.12,48.24c.36-4.92.71-9,.94-13.08.08-1.49.6-2.16,2.17-2.12,3.32.08,6.65.06,9.97.05,1.1,0,1.53.53,1.5,1.57-.13,4.96.99,4.2-4.07,4.55-.57.04-1.13.09-1.7.08-1.88-.04-1.86,1.17-1.88,2.56-.02,1.5.58,1.97,2.02,1.93,1.62-.05,3.25.18,4.88.16,1.65-.02,2.16.74,2.27,2.3.27,3.62.26,3.69-3.33,3.74-1.34.02-2.68.26-4.02.28-1.61.02-1.99.85-1.96,2.29.03,1.75,1.28,1.15,2.12,1.18,1.91.06,3.83.06,5.74-.02,1.3-.06,1.88.29,1.98,1.72.28,4.33.22,4.53-4.15,4.62-3.75.08-7.49.24-11.22.66-1.52.17-1.87-.34-1.74-1.91.3-3.79.04-7.61.48-10.55Z"/>
  </g>
</svg>